<?xml version="1.0" encoding="UTF-8"?>
<svg viewBox="0 0 257.24 307" xmlns="http://www.w3.org/2000/svg">
 <path d="m255.12 220s0.38303 1.655 0.34003 3.396c-0.041016 1.706-0.51001 5.434-0.51001 4.585s-1.527-1.91-1.527-1.91l-0.213 1.485-1.188 0.043-0.042-2.378-36.041-16.343s-0.042007-2.038-0.21201-2.08c-0.041992 2.037 0.085007 3.396-0.17 3.565-0.339-0.127-39.887-17.688-40.752-18.169-0.382-0.21201-0.17-1.952-0.17-1.952l-10.188-1.528-0.042 1.358s-21.438-3.014-22.032-2.632c-0.59401 0.382 0.55299 23.433-0.46701 39.055-1.019 15.621-2.759 24.026-3.523 27.04-0.713 2.813-0.127 3.438 1.231 4.627s28.653 21.396 30.946 23.136c2.251 1.709 2.293 2.49 2.293 3.523 0 1.358 0.041992 10.315 0.041992 10.315l-37.993-9.254s-0.213 3.777-0.76399 4.329c-0.55301 0.55301-1.698 0.34-1.698 0.34s-0.765 7.854-1.188 8.363c-0.425 0.509-1.146 0.76398-1.146 0.76398s-1.694 8.099-2.473 8.311v0.01001c-0.005997 0-0.012009-0.003998-0.016006-0.005005-0.005997 0.001007-0.011993 0.005005-0.015991 0.005005v-0.01001c-0.77901-0.21198-2.474-8.311-2.474-8.311s-0.722-0.25497-1.146-0.76398c-0.424-0.51001-1.188-8.363-1.188-8.363s-1.146 0.21301-1.698-0.34c-0.552-0.552-0.764-4.329-0.764-4.329l-37.993 9.254s0.042-8.957 0.042-10.315c0-1.033 0.042-1.814 2.292-3.523 2.292-1.74 29.588-21.947 30.946-23.136s1.944-1.814 1.231-4.627c-0.764-3.014-2.504-11.419-3.523-27.04-1.019-15.622 0.127-38.673-0.467-39.055-0.594-0.38199-22.032 2.632-22.032 2.632l-0.042-1.358-10.188 1.528s0.212 1.74-0.17 1.952c-0.865 0.48099-40.413 18.042-40.752 18.169-0.255-0.17-0.127-1.528-0.17-3.565-0.17 0.042007-0.212 2.08-0.212 2.08l-36.042 16.343-0.042 2.378-1.188-0.043-0.212-1.485s-1.528 1.062-1.528 1.91c0 0.84801-0.468-2.879-0.509-4.585-0.042-1.74 0.34-3.396 0.34-3.396s-1.231 0.38199-1.104-1.231c0.082-1.029 3.269-5.73 3.269-5.73s0.226-0.70499 0.187-1.203c-0.045-0.57901 0.661-0.95201 1.034-1.283 0.216-0.19099-0.023-1.241-0.023-1.241s11.943-10.241 32.636-26.285c20.659-16.018 45.11-35.658 45.11-35.658s0-1.132-0.226-2.717c-0.227-1.584-0.396-2.264-0.396-2.264s-1.245-0.39601-1.585-1.415c-0.253-0.76-0.905-6.283-0.792-11.264s0.396-7.584 0.736-8.377c0.339-0.792 1.487-1.143 2.943-1.358 1.528-0.226 7.458-0.085999 8.886 0.113 1.356 0.189 2.208 0.396 2.434 2.321 0.226 1.924 0.283 8.546 0.113 11.263-0.121 1.934-0.623 4.132-0.34 4.245 0.283 0.11299 5.207-4.698 7.924-6.622 2.717-1.925 7.358-5.943 7.924-7.188s0.623-1.415 0.962-0.283 0.283 2.264-0.17 3.056-0.679 1.812-0.227 2.264c0.17 0.17 1.528-0.96199 1.868-1.642 0.34-0.679 0-1.981 0.227-2.547s1.113-2.208 1.075-3.566c-0.22601-8.094-0.501-20.206-0.566-46.695-0.069-28.346 0.212-36.814 3.792-51.959 3.25-13.748 5.692-16.467 6.942-18.45 1.156-1.833 3.765-3.257 4.857-3.282v-0.002001c0.003998 0 0.01001 0.001001 0.016006 0.001001 0.003998 0 0.009995-0.001001 0.015991-0.001001v0.002001c1.091 0.025 3.699 1.45 4.855 3.282 1.25 1.982 3.691 4.702 6.942 18.45 3.58 15.145 3.861 23.613 3.792 51.959-0.063995 26.489-0.34 38.602-0.56599 46.695-0.037003 1.358 0.84999 3 1.076 3.566s-0.11299 1.868 0.227 2.547c0.339 0.679 1.697 1.812 1.867 1.642 0.453-0.45299 0.227-1.472-0.227-2.264s-0.51-1.924-0.17-3.056 0.396-0.962 0.963 0.283c0.565 1.245 5.207 5.264 7.924 7.188s7.641 6.735 7.924 6.622c0.28299-0.11301-0.21901-2.311-0.34-4.245-0.17001-2.717-0.11301-9.339 0.11299-11.263s1.078-2.131 2.434-2.321c1.429-0.2 7.358-0.339 8.887-0.113 1.455 0.216 2.604 0.566 2.943 1.358 0.34 0.792 0.623 3.396 0.73599 8.377 0.112 4.981-0.53999 10.504-0.793 11.264-0.34 1.019-1.585 1.415-1.585 1.415s-0.17001 0.67899-0.39601 2.264c-0.22699 1.585-0.22699 2.717-0.22699 2.717s24.451 19.641 45.109 35.658c20.693 16.044 32.637 26.285 32.637 26.285s-0.23999 1.05-0.022995 1.241c0.373 0.33099 1.079 0.704 1.033 1.283-0.039001 0.498 0.187 1.203 0.187 1.203s3.188 4.701 3.27 5.73c0.125 1.613-1.106 1.231-1.106 1.231zm-247.59-11.908l-2.393 1.834 0.207 0.27 2.414-1.85-0.228-0.254zm4.799-3.678l-4.529 3.471 0.227 0.254 4.51-3.457-0.208-0.268zm4.809-3.686l-4.539 3.479 0.208 0.269 4.511-3.457-0.18-0.291zm6.059-4.643l-5.788 4.436 0.18 0.291 5.808-4.452-0.2-0.275zm5.587-4.281l-5.318 4.074 0.2 0.275 5.323-4.08-0.205-0.269zm5.648-4.328l-5.378 4.121 0.206 0.271 5.368-4.114-0.196-0.278zm5.84-4.477l-5.571 4.27 0.196 0.277 5.607-4.297-0.232-0.25zm5.894-4.517l-5.623 4.31 0.231 0.25 5.585-4.28-0.193-0.28zm5.845-4.479l-5.575 4.272 0.193 0.28 5.556-4.259-0.174-0.293zm5.802-4.447l-5.531 4.238 0.174 0.295 5.551-4.254-0.194-0.279zm5.578-4.274l-5.308 4.066 0.194 0.279 5.317-4.074-0.203-0.271zm5.572-4.27l-5.302 4.063 0.204 0.271 5.273-4.041-0.175-0.293zm6.565-5.033l-6.294 4.824 0.175 0.294 6.265-4.801-0.146-0.317zm1.717-1.315l-1.44 1.104 0.145 0.316 1.429-1.096-0.134-0.324zm5.378-4.121l-5.098 3.907 0.134 0.325 5.171-3.963-0.207-0.269zm89.978 0l-0.207 0.27 5.172 3.963 0.133-0.325-5.098-3.908zm5.377 4.121l-0.133 0.325 1.43 1.096 0.145-0.316-1.442-1.105zm1.718 1.315l-0.146 0.317 6.266 4.801 0.174-0.294-6.294-4.824zm6.565 5.033l-0.175 0.294 5.273 4.041 0.204-0.271-5.302-4.064zm5.572 4.27l-0.204 0.271 5.317 4.074 0.193-0.279-5.306-4.066zm5.578 4.274l-0.194 0.279 5.551 4.254 0.174-0.295-5.531-4.238zm5.801 4.447l-0.174 0.294 5.557 4.259 0.193-0.28-5.576-4.273zm5.846 4.479l-0.193 0.279 5.584 4.28 0.232-0.25-5.623-4.309zm5.894 4.517l-0.231 0.25 5.607 4.297 0.195-0.277-5.571-4.27zm5.84 4.477l-0.195 0.277 5.368 4.114 0.205-0.271-5.378-4.12zm5.648 4.328l-0.205 0.27 5.323 4.08 0.199-0.275-5.317-4.075zm5.587 4.281l-0.199 0.274 5.809 4.452 0.18-0.291-5.79-4.435zm6.059 4.643l-0.18 0.29 4.511 3.457 0.208-0.269-4.539-3.478zm4.809 3.686l-0.208 0.268 4.51 3.457 0.228-0.254-4.53-3.471zm4.8 3.678l-0.228 0.254 2.414 1.85 0.206-0.27-2.392-1.834z" fill="#004663"/>
</svg>
