<?xml version="1.0" encoding="utf-8"?>
<!-- Generator: Adobe Illustrator 16.0.3, SVG Export Plug-In . SVG Version: 6.00 Build 0)  -->
<!DOCTYPE svg PUBLIC "-//W3C//DTD SVG 1.1//EN" "http://www.w3.org/Graphics/SVG/1.1/DTD/svg11.dtd">
<svg version="1.1" id="Capa_1" xmlns="http://www.w3.org/2000/svg" xmlns:xlink="http://www.w3.org/1999/xlink" x="0px" y="0px"
	 width="1000px" height="1000px" viewBox="0 0 1000 1000" enable-background="new 0 0 1000 1000" xml:space="preserve">
<path fill="#163E8D" stroke="#194BAD" stroke-miterlimit="10" d="M82.413,287.646c0,0-1.248-5.391-1.108-11.062
	c0.134-5.558,1.662-17.701,1.662-14.936s4.974,6.222,4.974,6.222l0.693-4.837l3.87-0.141l0.137,7.746l117.397,53.234
	c0,0,0.137,6.639,0.69,6.775c0.137-6.635-0.276-11.062,0.554-11.612c1.104,0.414,129.925,57.616,132.743,59.183
	c1.244,0.69,0.554,6.358,0.554,6.358l33.186,4.978l0.137-4.424c0,0,69.831,9.817,71.766,8.573s-1.802-76.329,1.521-127.215
	c3.319-50.883,8.987-78.261,11.476-88.078c2.323-9.163,0.414-11.199-4.01-15.072c-4.423-3.873-93.332-69.693-100.801-75.361
	c-7.332-5.566-7.469-8.11-7.469-11.476c0-4.424-0.137-33.6-0.137-33.6l123.755,30.144c0,0,0.694-12.303,2.489-14.101
	c1.801-1.802,5.53-1.107,5.53-1.107s2.492-25.583,3.87-27.241c1.385-1.658,3.732-2.488,3.732-2.488s5.519-26.382,8.056-27.072V1.004
	c0.02,0,0.039,0.013,0.053,0.016c0.02-0.003,0.039-0.016,0.052-0.016v0.032c2.537,0.69,8.059,27.072,8.059,27.072
	s2.352,0.83,3.732,2.488c1.382,1.661,3.87,27.241,3.87,27.241s3.732-0.694,5.531,1.107c1.798,1.798,2.488,14.101,2.488,14.101
	l123.756-30.144c0,0-0.137,29.176-0.137,33.6c0,3.365-0.137,5.909-7.466,11.476c-7.466,5.668-96.378,71.488-100.802,75.361
	c-4.423,3.873-6.332,5.909-4.01,15.072c2.489,9.817,8.156,37.195,11.476,88.078c3.319,50.886-0.413,125.971,1.521,127.215
	s71.766-8.573,71.766-8.573l0.137,4.423l33.186-4.977c0,0-0.69-5.668,0.554-6.358c2.817-1.566,131.639-58.769,132.743-59.183
	c0.83,0.554,0.413,4.978,0.554,11.612c0.554-0.137,0.69-6.775,0.69-6.775l117.4-53.234l0.137-7.746l3.87,0.141l0.69,4.837
	c0,0,4.978-3.459,4.978-6.222c0-2.762,1.524,9.378,1.657,14.935c0.137,5.668-1.107,11.063-1.107,11.063s4.01-1.244,3.597,4.01
	c-0.268,3.352-10.648,18.664-10.648,18.664s-0.736,2.297-0.609,3.919c0.146,1.886-2.153,3.101-3.368,4.179
	c-0.703,0.622,0.075,4.043,0.075,4.043s-38.902,33.358-106.307,85.618c-67.293,52.177-146.938,116.15-146.938,116.15
	s0,3.688,0.735,8.85c0.739,5.16,1.29,7.375,1.29,7.375s4.056,1.29,5.163,4.609c0.824,2.476,2.948,20.466,2.58,36.69
	s-1.29,24.703-2.397,27.286c-1.104,2.58-4.844,3.724-9.587,4.424c-4.977,0.736-24.293,0.28-28.944-0.368
	c-4.417-0.616-7.192-1.29-7.928-7.561c-0.736-6.267-0.922-27.837-0.368-36.687c0.394-6.3,2.029-13.46,1.107-13.828
	c-0.922-0.367-16.961,15.304-25.812,21.57c-8.85,6.271-23.968,19.358-25.811,23.414c-1.844,4.055-2.029,4.608-3.134,0.921
	c-1.104-3.687-0.922-7.374,0.554-9.954s2.212-5.902,0.739-7.374c-0.554-0.554-4.978,3.133-6.085,5.348
	c-1.107,2.212,0,6.453-0.739,8.297s-3.625,7.192-3.501,11.615c0.735,26.365,1.632,65.818,1.843,152.102
	c0.226,92.332-0.69,119.915-12.352,169.247c-10.586,44.782-18.541,53.639-22.612,60.098c-3.766,5.971-12.264,10.609-15.82,10.69
	V1001c-0.014,0-0.033-0.003-0.053-0.003c-0.013,0-0.032,0.003-0.052,0.003v-0.007c-3.554-0.081-12.049-4.723-15.814-10.69
	c-4.071-6.456-12.022-15.315-22.612-60.098c-11.661-49.332-12.576-76.915-12.352-169.247c0.208-86.283,1.107-125.739,1.843-152.102
	c0.121-4.423-2.769-9.771-3.505-11.615c-0.735-1.844,0.368-6.085-0.739-8.297c-1.104-2.211-5.527-5.901-6.081-5.348
	c-1.476,1.475-0.739,4.794,0.739,7.374s1.661,6.268,0.554,9.954c-1.107,3.688-1.29,3.134-3.137-0.921
	c-1.841-4.056-16.961-17.146-25.812-23.414c-8.85-6.267-24.889-21.938-25.811-21.57s0.713,7.528,1.107,13.828
	c0.554,8.85,0.368,30.42-0.368,36.687c-0.736,6.268-3.512,6.941-7.928,7.561c-4.655,0.651-23.968,1.104-28.948,0.368
	c-4.739-0.704-8.482-1.844-9.587-4.424c-1.107-2.58-2.029-11.062-2.396-27.286c-0.365-16.225,1.759-34.215,2.583-36.69
	c1.107-3.319,5.162-4.609,5.162-4.609s0.554-2.212,1.29-7.375c0.739-5.162,0.739-8.85,0.739-8.85s-79.645-63.978-146.935-116.15
	c-67.403-52.26-106.31-85.618-106.31-85.618s0.782-3.421,0.075-4.043c-1.215-1.078-3.515-2.293-3.365-4.179
	c0.127-1.622-0.608-3.919-0.608-3.919s-10.385-15.313-10.651-18.664C78.403,286.401,82.413,287.646,82.413,287.646L82.413,287.646z
	 M888.896,326.434l7.794-5.974l-0.674-0.88l-7.863,6.026L888.896,326.434z M873.263,338.414l14.753-11.306l-0.739-0.828
	l-14.69,11.261L873.263,338.414L873.263,338.414z M857.599,350.421l14.785-11.332l-0.678-0.877l-14.693,11.261L857.599,350.421z
	 M837.862,365.545l18.854-14.45l-0.586-0.947l-18.919,14.501L837.862,365.545L837.862,365.545z M819.664,379.489l17.322-13.271
	l-0.651-0.896l-17.339,13.29L819.664,379.489L819.664,379.489z M801.267,393.587l17.518-13.424l-0.671-0.883l-17.485,13.401
	L801.267,393.587z M782.243,408.17l18.147-13.909l-0.639-0.902l-18.264,13.997L782.243,408.17z M763.045,422.884l18.315-14.04
	l-0.752-0.813l-18.192,13.941L763.045,422.884z M744.006,437.473l18.159-13.915l-0.628-0.912l-18.098,13.873L744.006,437.473z
	 M725.106,451.958l18.017-13.805l-0.566-0.961l-18.082,13.857L725.106,451.958z M706.938,465.88l17.29-13.244l-0.632-0.909
	l-17.319,13.271L706.938,465.88z M688.787,479.789l17.271-13.234l-0.664-0.883l-17.177,13.163L688.787,479.789L688.787,479.789z
	 M667.403,496.183l20.501-15.713l-0.569-0.958l-20.407,15.639L667.403,496.183L667.403,496.183z M661.811,500.467l4.69-3.597
	l-0.473-1.029l-4.654,3.57L661.811,500.467L661.811,500.467z M644.292,513.89l16.606-12.727l-0.437-1.059l-16.844,12.909
	L644.292,513.89z M351.204,513.89l0.675-0.879l-16.848-12.909l-0.433,1.059L351.204,513.89z M333.689,500.467l0.434-1.059
	l-4.658-3.57l-0.473,1.029L333.689,500.467z M328.094,496.183l0.476-1.032l-20.411-15.639l-0.566,0.958L328.094,496.183
	L328.094,496.183z M306.709,479.789l0.57-0.958l-17.176-13.163l-0.665,0.883L306.709,479.789L306.709,479.789z M288.56,465.88
	l0.664-0.883l-17.319-13.271l-0.629,0.909L288.56,465.88z M270.39,451.958l0.632-0.908l-18.081-13.857l-0.566,0.961L270.39,451.958
	L270.39,451.958z M251.494,437.473l0.566-0.957l-18.101-13.873l-0.629,0.912L251.494,437.473L251.494,437.473z M232.452,422.884
	l0.628-0.909l-18.188-13.941l-0.756,0.814L232.452,422.884z M213.253,408.17l0.753-0.814l-18.264-13.997l-0.636,0.902
	L213.253,408.17z M194.23,393.587l0.635-0.902l-17.485-13.4l-0.667,0.883L194.23,393.587L194.23,393.587z M175.833,379.489
	l0.668-0.88l-17.339-13.29l-0.648,0.896L175.833,379.489L175.833,379.489z M157.634,365.545l0.648-0.893L139.36,350.15l-0.586,0.948
	L157.634,365.545z M137.898,350.421l0.586-0.945l-14.693-11.26l-0.678,0.876L137.898,350.421z M122.233,338.414l0.678-0.873
	l-14.69-11.261l-0.743,0.828L122.233,338.414L122.233,338.414z M106.599,326.434l0.742-0.827l-7.863-6.026l-0.671,0.88
	L106.599,326.434z"/>
</svg>
